<svg id="Layer_2" data-name="Layer 2" xmlns="http://www.w3.org/2000/svg" viewBox="0 0 2081.01 620.41" xmlns:c2pa="http://c2pa.org/manifest"><metadata><c2pa:manifest>AAAWgmp1bWIAAAAeanVtZGMycGEAEQAQgAAAqgA4m3EDYzJwYQAAABZcanVtYgAAAEdqdW1kYzJtYQARABCAAACqADibcQN1cm46YzJwYTpkZjhkMDA3OS02N2NhLTRkZjEtODJlMS1lZThhMzA2NDhhOGEAAAADl2p1bWIAAAApanVtZGMyYXMAEQAQgAAAqgA4m3EDYzJwYS5hc3NlcnRpb25zAAAAALxqdW1iAAAARGp1bWRjYm9yABEAEIAAAKoAOJtxE2MycGEuaW5ncmVkaWVudC52MwAAAAAYYzJzaMJXkx0NV74R/Q2A13RBUKAAAABwY2JvcqNpZGM6Zm9ybWF0bWltYWdlL3N2Zyt4bWxqaW5zdGFuY2VJRHgseG1wOmlpZDowZWViNzVlMS1jODI2LTQ0OTAtYWVlZi0xYjc4ODUwZGQ5YzhscmVsYXRpb25zaGlwaHBhcmVudE9mAAAB4mp1bWIAAABBanVtZGNib3IAEQAQgAAAqgA4m3ETYzJwYS5hY3Rpb25zLnYyAAAAABhjMnNogDnaeXNxp1Dqh1BuxIe9LgAAAZljYm9yomdhY3Rpb25zgqJmYWN0aW9ua2MycGEub3BlbmVkanBhcmFtZXRlcnOha2luZ3JlZGllbnRzgaJjdXJseC1zZWxmI2p1bWJmPWMycGEuYXNzZXJ0aW9ucy9jMnBhLmluZ3JlZGllbnQudjNkaGFzaFgg7N2zAH7/Fr3+CM4hsQ6PLMkxz2gqbtwRyvMY08ydJZKkZmFjdGlvbngdY29tLmFudGhyb3BpYy5jbGF1ZGUucHJvdmlkZWRqcGFyYW1ldGVyc6F4H2NvbS5hbnRocm9waWMub3JpZ2luLWNvbmZpZGVuY2VndW5rbm93bmtkZXNjcmlwdGlvbnhmQ2xhdWRlIHByb3ZpZGVkIHRoaXMgZmlsZSBhdCB0aGUgcmVxdWVzdCBvZiBhIHVzZXIgYW5kIG1heSBoYXZlIGNyZWF0ZWQgb3IgbW9kaWZpZWQgdGhlIGZpbGUgY29udGVudHMubXNvZnR3YXJlQWdlbnShZG5hbWVmQ2xhdWRlcmFsbEFjdGlvbnNJbmNsdWRlZPUAAADIanVtYgAAAEBqdW1kY2JvcgARABCAAACqADibcRNjMnBhLmhhc2guZGF0YQAAAAAYYzJzaOajk2AxxlaF4ABBFZ62JHUAAACAY2JvcqVjYWxnZnNoYTI1NmNwYWRNAAAAAAAAAAAAAAAAAGRoYXNoWCD7ctBWvZbLe99xdiAI6MAz9NPgkSIey8zuiMhoVdOnR2RuYW1lbmp1bWJmIG1hbmlmZXN0amV4Y2x1c2lvbnOBomVzdGFydBilZmxlbmd0aBkeBAAAAj5qdW1iAAAAJ2p1bWRjMmNsABEAEIAAAKoAOJtxA2MycGEuY2xhaW0udjIAAAACD2Nib3KlY2FsZ2ZzaGEyNTZpc2lnbmF0dXJleE1zZWxmI2p1bWJmPS9jMnBhL3VybjpjMnBhOmRmOGQwMDc5LTY3Y2EtNGRmMS04MmUxLWVlOGEzMDY0OGE4YS9jMnBhLnNpZ25hdHVyZWppbnN0YW5jZUlEeCx4bXA6aWlkOjFiMGRjMWFmLWMxM2YtNDU1Yi05NTQ0LWNkOGRjYWVmNjI0ZnJjcmVhdGVkX2Fzc2VydGlvbnODomN1cmx4LXNlbGYjanVtYmY9YzJwYS5hc3NlcnRpb25zL2MycGEuaW5ncmVkaWVudC52M2RoYXNoWCDs3bMAfv8Wvf4IziGxDo8syTHPaCpu3BHK8xjTzJ0lkqJjdXJseCpzZWxmI2p1bWJmPWMycGEuYXNzZXJ0aW9ucy9jMnBhLmFjdGlvbnMudjJkaGFzaFggbsXZAikSEyCfhe7ePY+whtRUd6JYJ9vwwCoHv81Gg7CiY3VybHgpc2VsZiNqdW1iZj1jMnBhLmFzc2VydGlvbnMvYzJwYS5oYXNoLmRhdGFkaGFzaFggxVXzjR+u5CIlxlkNiLBLxaV/ngqRmshAInQCSa47fT10Y2xhaW1fZ2VuZXJhdG9yX2luZm+jZG5hbWVvQW50aHJvcGljIEZpbGVzZ3ZlcnNpb25lMS4wLjBrc3BlY1ZlcnNpb25lMi40LjAAABA4anVtYgAAAChqdW1kYzJjcwARABCAAACqADibcQNjMnBhLnNpZ25hdHVyZQAAABAIY2JvctKEWQISogEmGCFZAgowggIGMIIBjaADAgECAhRA5aAK7sI50L64g/oGQgU9Z1UTADAKBggqhkjOPQQDAzBJMRcwFQYDVQQKEw5BbnRocm9waWMsIFBCQzEuMCwGA1UEAxMlQW50aHJvcGljIENvbnRlbnQgQ3JlZGVudGlhbHMgUm9vdCBDQTAeFw0yNjA4MDcxODQzNTZaFw0yODA4MDYxOTQzNTZaMEQxFzAVBgNVBAoTDkFudGhyb3BpYywgUEJDMSkwJwYDVQQDEyBBbnRocm9waWMgQ2xhdWRlIENvbnRlbnQgU2lnbmluZzBZMBMGByqGSM49AgEGCCqGSM49AwEHA0IABJh6CmvLUBgFFNU0vUKlOVtE6djd17L5SuwX0LemFisBM3dkd/3cyjxFA3Qo5S46fX0/ihY0VZ7mfb9KF703t5OjWDBWMA4GA1UdDwEB/wQEAwIHgDAVBgNVHSUEDjAMBgorBgEEAYPoXgIBMAwGA1UdEwEB/wQCMAAwHwYDVR0jBBgwFoAUzlHiBIFOZFsj+OPEz5o+nMHXXMIwCgYIKoZIzj0EAwMDZwAwZAIwMXMdFJ4BetLLVY7ORuE9noqbbAZOZn/aArXyTwFAZfKrPzxF2vPoJNf1+UCdg1XGAjBwX1zd9WGqYkqmL5SFqw1QySjr1zJfpJM9+1rdDwSPLMOPOjKuiXjoU/pUUeG9RwmhY3BhZFkNngAAAAAAAAAAAAAAAAAAAAAAAAAAAAAAAAAAAAAAAAAAAAAAAAAAAAAAAAAAAAAAAAAAAAAAAAAAAAAAAAAAAAAAAAAAAAAAAAAAAAAAAAAAAAAAAAAAAAAAAAAAAAAAAAAAAAAAAAAAAAAAAAAAAAAAAAAAAAAAAAAAAAAAAAAAAAAAAAAAAAAAAAAAAAAAAAAAAAAAAAAAAAAAAAAAAAAAAAAAAAAAAAAAAAAAAAAAAAAAAAAAAAAAAAAAAAAAAAAAAAAAAAAAAAAAAAAAAAAAAAAAAAAAAAAAAAAAAAAAAAAAAAAAAAAAAAAAAAAAAAAAAAAAAAAAAAAAAAAAAAAAAAAAAAAAAAAAAAAAAAAAAAAAAAAAAAAAAAAAAAAAAAAAAAAAAAAAAAAAAAAAAAAAAAAAAAAAAAAAAAAAAAAAAAAAAAAAAAAAAAAAAAAAAAAAAAAAAAAAAAAAAAAAAAAAAAAAAAAAAAAAAAAAAAAAAAAAAAAAAAAAAAAAAAAAAAAAAAAAAAAAAAAAAAAAAAAAAAAAAAAAAAAAAAAAAAAAAAAAAAAAAAAAAAAAAAAAAAAAAAAAAAAAAAAAAAAAAAAAAAAAAAAAAAAAAAAAAAAAAAAAAAAAAAAAAAAAAAAAAAAAAAAAAAAAAAAAAAAAAAAAAAAAAAAAAAAAAAAAAAAAAAAAAAAAAAAAAAAAAAAAAAAAAAAAAAAAAAAAAAAAAAAAAAAAAAAAAAAAAAAAAAAAAAAAAAAAAAAAAAAAAAAAAAAAAAAAAAAAAAAAAAAAAAAAAAAAAAAAAAAAAAAAAAAAAAAAAAAAAAAAAAAAAAAAAAAAAAAAAAAAAAAAAAAAAAAAAAAAAAAAAAAAAAAAAAAAAAAAAAAAAAAAAAAAAAAAAAAAAAAAAAAAAAAAAAAAAAAAAAAAAAAAAAAAAAAAAAAAAAAAAAAAAAAAAAAAAAAAAAAAAAAAAAAAAAAAAAAAAAAAAAAAAAAAAAAAAAAAAAAAAAAAAAAAAAAAAAAAAAAAAAAAAAAAAAAAAAAAAAAAAAAAAAAAAAAAAAAAAAAAAAAAAAAAAAAAAAAAAAAAAAAAAAAAAAAAAAAAAAAAAAAAAAAAAAAAAAAAAAAAAAAAAAAAAAAAAAAAAAAAAAAAAAAAAAAAAAAAAAAAAAAAAAAAAAAAAAAAAAAAAAAAAAAAAAAAAAAAAAAAAAAAAAAAAAAAAAAAAAAAAAAAAAAAAAAAAAAAAAAAAAAAAAAAAAAAAAAAAAAAAAAAAAAAAAAAAAAAAAAAAAAAAAAAAAAAAAAAAAAAAAAAAAAAAAAAAAAAAAAAAAAAAAAAAAAAAAAAAAAAAAAAAAAAAAAAAAAAAAAAAAAAAAAAAAAAAAAAAAAAAAAAAAAAAAAAAAAAAAAAAAAAAAAAAAAAAAAAAAAAAAAAAAAAAAAAAAAAAAAAAAAAAAAAAAAAAAAAAAAAAAAAAAAAAAAAAAAAAAAAAAAAAAAAAAAAAAAAAAAAAAAAAAAAAAAAAAAAAAAAAAAAAAAAAAAAAAAAAAAAAAAAAAAAAAAAAAAAAAAAAAAAAAAAAAAAAAAAAAAAAAAAAAAAAAAAAAAAAAAAAAAAAAAAAAAAAAAAAAAAAAAAAAAAAAAAAAAAAAAAAAAAAAAAAAAAAAAAAAAAAAAAAAAAAAAAAAAAAAAAAAAAAAAAAAAAAAAAAAAAAAAAAAAAAAAAAAAAAAAAAAAAAAAAAAAAAAAAAAAAAAAAAAAAAAAAAAAAAAAAAAAAAAAAAAAAAAAAAAAAAAAAAAAAAAAAAAAAAAAAAAAAAAAAAAAAAAAAAAAAAAAAAAAAAAAAAAAAAAAAAAAAAAAAAAAAAAAAAAAAAAAAAAAAAAAAAAAAAAAAAAAAAAAAAAAAAAAAAAAAAAAAAAAAAAAAAAAAAAAAAAAAAAAAAAAAAAAAAAAAAAAAAAAAAAAAAAAAAAAAAAAAAAAAAAAAAAAAAAAAAAAAAAAAAAAAAAAAAAAAAAAAAAAAAAAAAAAAAAAAAAAAAAAAAAAAAAAAAAAAAAAAAAAAAAAAAAAAAAAAAAAAAAAAAAAAAAAAAAAAAAAAAAAAAAAAAAAAAAAAAAAAAAAAAAAAAAAAAAAAAAAAAAAAAAAAAAAAAAAAAAAAAAAAAAAAAAAAAAAAAAAAAAAAAAAAAAAAAAAAAAAAAAAAAAAAAAAAAAAAAAAAAAAAAAAAAAAAAAAAAAAAAAAAAAAAAAAAAAAAAAAAAAAAAAAAAAAAAAAAAAAAAAAAAAAAAAAAAAAAAAAAAAAAAAAAAAAAAAAAAAAAAAAAAAAAAAAAAAAAAAAAAAAAAAAAAAAAAAAAAAAAAAAAAAAAAAAAAAAAAAAAAAAAAAAAAAAAAAAAAAAAAAAAAAAAAAAAAAAAAAAAAAAAAAAAAAAAAAAAAAAAAAAAAAAAAAAAAAAAAAAAAAAAAAAAAAAAAAAAAAAAAAAAAAAAAAAAAAAAAAAAAAAAAAAAAAAAAAAAAAAAAAAAAAAAAAAAAAAAAAAAAAAAAAAAAAAAAAAAAAAAAAAAAAAAAAAAAAAAAAAAAAAAAAAAAAAAAAAAAAAAAAAAAAAAAAAAAAAAAAAAAAAAAAAAAAAAAAAAAAAAAAAAAAAAAAAAAAAAAAAAAAAAAAAAAAAAAAAAAAAAAAAAAAAAAAAAAAAAAAAAAAAAAAAAAAAAAAAAAAAAAAAAAAAAAAAAAAAAAAAAAAAAAAAAAAAAAAAAAAAAAAAAAAAAAAAAAAAAAAAAAAAAAAAAAAAAAAAAAAAAAAAAAAAAAAAAAAAAAAAAAAAAAAAAAAAAAAAAAAAAAAAAAAAAAAAAAAAAAAAAAAAAAAAAAAAAAAAAAAAAAAAAAAAAAAAAAAAAAAAAAAAAAAAAAAAAAAAAAAAAAAAAAAAAAAAAAAAAAAAAAAAAAAAAAAAAAAAAAAAAAAAAAAAAAAAAAAAAAAAAAAAAAAAAAAAAAAAAAAAAAAAAAAAAAAAAAAAAAAAAAAAAAAAAAAAAAAAAAAAAAAAAAAAAAAAAAAAAAAAAAAAAAAAAAAAAAAAAAAAAAAAAAAAAAAAAAAAAAAAAAAAAAAAAAAAAAAAAAAAAAAAAAAAAAAAAAAAAAAAAAAAAAAAAAAAAAAAAAAAAAAAAAAAAAAAAAAAAAAAAAAAAAAAAAAAAAAAAAAAAAAAAAAAAAAAAAAAAAAAAAAAAAAAAAAAAAAAAAAAAAAAAAAAAAAAAAAAAAAAAAAAAAAAAAAAAAAAAAAAAAAAAAAAAAAAAAAAAAAAAAAAAAAAAAAAAAAAAAAAAAAAAAAAAAAAAAAAAAAAAAAAAAAAAAAAAAAAAAAAAAAAAAAAAAAAAAAAAAAAAAAAAAAAAAAAAAAAAAAAAAAAAAAAAAAAAAAAAAAAAAAAAAAAAAAAAAAAAAAAAAAAAAAAAAAAAAAAAAAAAAAAAAAAAAAAAAAAAAAAAAAAAAAAAAAAAAAAAAAAAAAAAAAAAAAAAAAAAAAAAAAAAAAAAAAAAAAAAAAAAAAAAAAAAAAAAAAAAAAAAAAAAAAAAAAAAAAAAAAAAAAAAAAAAAAAAAAAAAAAAAAAAAAAAAAAAAAAAAAAAAAAAAAAAAAAAAAAAAAAAAAAAAAAAAAAAAAAAAAAAAAAAAAAAAAAAAAAAAAAAAAAAAAAAAAAAAAAAAAAAAAAAAAAAAAAAAAAAAAAAAAAAAAAAAAAAAAAAAAAAAAAAAAAAAAAAAAAAAAAAAAAAAAAAAAAAAAAAAAAAAAAAAAAAAAAAAAAAAAAAAAAAAAAAAAAAAAAAAAAAAAAAAAAAAAAAAAAAAAAAAAAAAAAAAAAAAAAAAAAAAAAAAAAAAAAAAAAAAAAAAAAAAAAAAAAAAAAAAAAAAAAAAAAAAAAAAAAAAAAAAAAAAAAAAAAAAAAAAAAAAAAAAAAAAAAAAAAAAAAAAAAAAAAAAAAAAAAAAAAAAAAAAAAAAAAAAAAAAAAAAAAAAAAAAAAAAAAAAAAAAAAAAAAAAAAAAAAAAAAAAAAAAAAAAAAAAAAAAAAAAAAAAAAAAAAAAAAAAAAAAAAAAAAAAAAAAAAAAAAAAAAAAAAAAAAAAAAAAAAAAAAAAAAAAAAAAAAAAAAAAAAAAAAAAAAAAAAAAAAAAAAAAAAAAAAAAAAAAAAAAAAAAAAAAAAAAAAAAAAAAAAAAAAAAAAAAAAAAAAAAAAAAAAAAAAAAAAAAAAAAAAAAAAAAAAAAAAAAAAAAAAAAAAAAAAAAAAAAAAAAAAAAAAAAAAAAAAAAAAAAAAAAAAAAAAAAAAAAAAAAAAAAAAAAAAAAAAAAAAAAAAAAAAAAAAAAAAAAAAAAAAAAAAAAAAAAAAAAAAAAAAAAAAAAAAAAAAAAAAAAAAAAAAAAAAAAAAAAAAAAAAAAAAAAAAAAAAAAAAAAAAAAAAAAAAAAAAAAAAAAAAAAAAAAAAAAAAAAAAAAAAAAAAAAAAAAAAAAAAAAAAAAAAAAAAAAAAAAAAAAAAAAAAAAAAAAAAAAAAAAAAAAAAAAAAAAAAAAAAAAAAAAAAAAAAAAAAAAAAAAAAAAAAAAAAAAAAAAAAAAAAAAAAAAAAAAAAAAAAAAAAAAAAAAAAAAAAAAAAAAAAAAAAAAAAAAAAAAAAAAPZYQBzkflxuexb1txSo+N+Pt1tbIqYfN5btEWJ999WBgcl5JF99kF2gkKRXA6c2KnsHI+0ylNbaz3Ud8AJICkhIu8U=</c2pa:manifest></metadata>
  
  <g id="Layer_1-2" data-name="Layer 1">
    <g>
      <g>
        <path fill="#1c3a28" d="M76.67,612.39l248.05-102.06c1.05-.44,2.24-.43,3.29.03l244.56,102.12c3.8,1.67,3.09,7.26-1,7.93l-244.17-54.89s-248.69,54.86-248.81,54.87c-4.61.41-6.37-6.14-1.93-8.01Z"></path>
        <path fill="#1c3a28" d="M309.44,208.23c-.2-1.55-1.05-2.94-2.33-3.84l-57.93-40.58c-1.79-1.16-2.43-3.47-1.51-5.39l64.2-121.99c1.25-2.37.13-5.29-2.38-6.22L229.09.28c-2.22-.83-4.7.24-5.63,2.41l-23.28,54.51c-.35.81-.44,1.71-.28,2.58l13.61,70.84c.7,3.69-3.4,6.39-6.52,4.3l-73.67-52.13c-2.23-1.5-5.29-.56-6.29,1.94L9.36,346.74c-1.51,3.76,2.6,7.21,5.99,5.27.22-.13.45-.25.68-.35l80.9-31.95c.24-.09.46-.22.68-.34,3.36-1.92,7.45,1.44,6.03,5.19L.29,606.89c-1.33,3.53,2.26,6.91,5.7,5.36l96.09-42.34c1.07-.48,1.89-1.38,2.26-2.49l62.99-188.81c1.45-4.23,7.61-3.61,8.2.81l8.23,150.32c.37,2.74,3.21,4.4,5.78,3.37l94.49-38.57c1.17-.47,2.03-1.42,2.42-2.54.33-.95.25-2-.12-2.94l-86.81-217.13c-.21-.54-.35-1.11-.32-1.69.03-.5.14-1,.35-1.47l23.59-50.34c1.06-2.43,4.06-3.3,6.25-1.81l80.54,58.85c2.24,1.66,5.37-.2,4.98-2.96l-5.46-64.29Z"></path>
        <path fill="#1c3a28" d="M531.59,165.93l-201.93-76.03c-2.73-1.07-5.7.9-5.77,3.84l48.26,398.33c-.03,1.6.84,3.07,2.26,3.82l60.44,25.45c2.82,1.49,6.21-.56,6.21-3.74l-64.41-281.67c0-1.6.9-3.06,2.33-3.78l152.97-58.49c3.27-1.65,3.05-6.39-.36-7.72Z"></path>
      </g>
      <g>
        <path fill="#1c3a28" d="M844.21,118.89l147.62,394.76c1.38,3.69-1.35,7.61-5.28,7.61h-80.52c-2.42,0-4.56-1.54-5.34-3.83l-28.11-82.77c-.78-2.29-2.92-3.83-5.34-3.83h-143.8c-2.39,0-4.52,1.51-5.32,3.77l-29.19,82.89c-.79,2.26-2.93,3.77-5.32,3.77h-77.7c-3.94,0-6.67-3.94-5.27-7.63l149.28-394.76c.83-2.19,2.93-3.64,5.27-3.64h83.75c2.35,0,4.46,1.46,5.28,3.66ZM847.59,363.25l-46.13-136.12c-1.72-5.08-8.89-5.11-10.66-.05l-47.66,136.16c-.19.52.2,1.07.75,1.07h102.95c.55,0,.94-.54.76-1.06Z"></path>
        <path fill="#1c3a28" d="M1202.75,115.23c25.39,0,47,3.7,64.83,11.09,17.82,7.39,32.32,17.16,43.5,29.29,11.18,12.14,19.34,25.97,24.45,41.51,5.12,15.55,7.68,31.66,7.68,48.34s-2.56,32.33-7.68,48.05c-5.12,15.74-13.27,29.67-24.45,41.8-11.19,12.14-25.69,21.89-43.5,29.29-17.82,7.39-39.43,11.09-64.83,11.09h-80.81c-3.11,0-5.64,2.52-5.64,5.64v134.3c0,3.11-2.52,5.64-5.64,5.64h-78c-3.11,0-5.64-2.52-5.64-5.64V120.87c0-3.11,2.52-5.64,5.64-5.64h170.09ZM1178.29,306.3c10.24,0,20.09-.76,29.57-2.27,9.47-1.51,17.82-4.45,25.02-8.81,7.2-4.35,12.98-10.52,17.34-18.48,4.35-7.96,6.54-18.38,6.54-31.28s-2.19-23.32-6.54-31.28c-4.36-7.96-10.15-14.12-17.34-18.48-7.21-4.35-15.55-7.29-25.02-8.81-9.48-1.51-19.34-2.27-29.57-2.27h-56.36c-3.11,0-5.64,2.52-5.64,5.64v110.42c0,3.11,2.52,5.64,5.64,5.64h56.36Z"></path>
        <path fill="#1c3a28" d="M1680.14,121.67v62.18c0,3.56-2.88,6.44-6.44,6.44h-202.43c-3.56,0-6.44,2.88-6.44,6.44v74.13c0,3.56,2.88,6.44,6.44,6.44h160.81c3.56,0,6.44,2.88,6.44,6.44v56.5c0,3.56-2.88,6.44-6.44,6.44h-160.81c-3.56,0-6.44,2.88-6.44,6.44v86.64c0,3.56,2.88,6.44,6.44,6.44h192.22c3.56,0,6.44,2.88,6.44,6.44v62.18c0,3.56-2.88,6.44-6.44,6.44h-281.5c-3.56,0-6.44-2.88-6.44-6.44V121.67c0-3.56,2.88-6.44,6.44-6.44h291.72c3.56,0,6.44,2.88,6.44,6.44Z"></path>
        <path fill="#1c3a28" d="M1723.98,115.23h87.76c2.24,0,4.32,1.16,5.49,3.07l72.34,117.81c2.49,4.06,8.37,4.1,10.92.09l75.03-117.98c1.18-1.86,3.23-2.98,5.43-2.98h82.19c5.15,0,8.22,5.75,5.35,10.03l-121.09,180.31c-1.45,2.17-1.46,5,0,7.17l132.52,198.51c2.86,4.28-.21,10.02-5.36,10.02h-90.75c-2.21,0-4.27-1.13-5.45-3l-81.42-128.92c-2.51-3.98-8.31-4.01-10.86-.05l-83.05,129.02c-1.19,1.84-3.23,2.95-5.42,2.95h-84.55c-5.14,0-8.21-5.73-5.36-10.01l132.54-199.08c1.45-2.18,1.44-5.01-.03-7.18l-121.58-179.72c-2.89-4.28.17-10.05,5.33-10.05Z"></path>
      </g>
    </g>
  </g>
</svg>